# AST/ASF file generated using VICON BodyLanguage
# -----------------------------------------------
:version 1.10
:name VICON
:units
  mass 1.0
  length 0.45
  angle deg
:documentation
   .ast/.asf automatically generated from VICON data using
   VICON BodyBuilder and BodyLanguage model FoxedUp or BRILLIANT.MOD
:root
   order TX TY TZ RX RY RZ
   axis XYZ
   position 0 0 0  
   orientation 0 0 0 
:bonedata
  begin
     id 1 
     name lhipjoint
     direction 0.635376 -0.686425 0.353719 
     length 2.47244 
     axis 0 0 0  XYZ
  end
  begin
     id 2 
     name lfemur
     direction 0.34202 -0.939693 0  
     length 7.25268  
     axis 0 0 20  XYZ
    dof rx ry rz
    limits (-160.0 20.0)
           (-70.0 70.0)
           (-60.0 70.0)
  end
  begin
     id 3 
     name ltibia
     direction 0.34202 -0.939693 0   
     length 7.6767   
     axis 0 0 20   XYZ
    dof rx
    limits (-10.0 170.0)
  end
  begin
     id 4 
     name lfoot
     direction 0.0803374 -0.220725 0.972022   
     length 2.22945   
     axis -90 7.62852e-016 20   XYZ
    dof rx rz
    limits (-45.0 90.0)
           (-70.0 20.0)
  end
  begin
     id 5 
     name ltoes
     direction 1.53579e-011 -4.21994e-011 1   
     length 1.11848   
     axis -90 7.62852e-016 20   XYZ
    dof rx
    limits (-90.0 20.0)
  end
  begin
     id 6 
     name rhipjoint
     direction -0.664428 -0.664335 0.342336   
     length 2.55466  
     axis 0 0 0  XYZ 
  end
  begin
     id 7 
     name rfemur
     direction -0.34202 -0.939693 0   
     length 6.83172   
     axis 0 0 -20   XYZ
    dof rx ry rz
    limits (-160.0 20.0)
           (-70.0 70.0)
           (-70.0 60.0)
  end
  begin
     id 8 
     name rtibia
     direction -0.34202 -0.939693 0   
     length 7.62692   
     axis 0 0 -20   XYZ
    dof rx
    limits (-10.0 170.0)
 end
 begin
     id 9 
     name rfoot
     direction -0.0949276 -0.260811 0.960711   
     length 2.19684  
     axis -90 -7.62852e-016 -20   XYZ
    dof rx rz
    limits (-45.0 90.0)
           (-20.0 70.0)
  end
  begin
     id 10 
     name rtoes
     direction -1.53543e-011 -4.2183e-011 1   
     length 1.09848   
     axis -90 -7.62852e-016 -20   XYZ
    dof rx
    limits (-90.0 20.0)
  end
  begin
     id 11 
     name lowerback
     direction 0.0118782 0.999815 -0.0151555   
     length 2.15772   
     axis 0 0 0   XYZ
    dof rx ry rz
    limits (-20.0 45.0)
           (-30.0 30.0)
           (-30.0 30.0)
  end
  begin
     id 12 
     name upperback
     direction 0.00130825 0.999065 0.0432113   
     length 2.14863   
     axis 0 0 0   XYZ
    dof rx ry rz
    limits (-20.0 45.0)
           (-30.0 30.0)
           (-30.0 30.0)
  end
  begin
     id 13 
     name thorax
     direction -0.00347005 0.998773 0.0494011   
     length 2.14936   
     axis 0 0 0   XYZ
    dof rx ry rz
    limits (-20.0 45.0)
           (-30.0 30.0)
           (-30.0 30.0)
  end
  begin
     id 14 
     name lowerneck
     direction -0.0262159 0.99424 0.103921   
     length 1.69373   
     axis 0 0 0   XYZ
    dof rx ry rz
    limits (-20.0 45.0)
           (-30.0 30.0)
           (-30.0 30.0)
  end
  begin
     id 15 
     name upperneck
     direction 0.0353511 0.977394 -0.20845   
     length 1.70857   
     axis 0 0 0   XYZ
    dof rx ry rz
    limits (-20.0 45.0)
           (-30.0 30.0)
           (-30.0 30.0)
  end
  begin
     id 16
     name head
     direction 0.0139214 0.996594 -0.0812836  
     length 1.72777  
     axis 0 0 0   XYZ
    dof rx ry rz
    limits (-20.0 45.0)
           (-30.0 30.0)
           (-30.0 30.0)
  end
  begin
     id 17 
     name lclavicle
     direction 0.841247 0.537205 -0.0609508  
     length 3.55371  
     axis 0 0 0   XYZ
    dof ry rz
    limits (-20.0 10.0)
           (0.0 20.0)
  end
  begin
     id 18 
     name lhumerus
     direction 1 -4.48964e-011 1.60116e-018   
     length 4.91377   
     axis -180 -30 -90   XYZ
    dof rx ry rz
    limits (-60.0 90.0)
           (-90.0 90.0)
           (-90.0 90.0)
  end
  begin
     id 19
     name lradius
     direction 1 -4.48989e-011 -8.93847e-027   
     length 3.00291   
     axis -180 -30 -90   XYZ
    dof rx
    limits (-10.0 170.0)
  end
  begin
     id 20
     name lwrist
     direction 1 -4.48932e-011 -7.31504e-027   
     length 1.50145   
     axis 5.74121e-015 90 90   XYZ
    dof ry
    limits (-180.0 0.0)
 end
  begin
     id 21 
     name lhand
     direction 1 -4.48971e-011 -1.46301e-026   
     length 0.450922   
     axis 9.33524e-015 90 90   XYZ
    dof rx rz
    limits (-90.0 90.0)
           (-45.0 45.0)
  end
  begin
     id 22 
     name lfingers
     direction 1 -4.49039e-011 -2.92602e-026   
     length 0.363545   
     axis 1.86705e-014 90 90   XYZ
    dof rx
    limits (0.0 90.0)
  end
  begin
     id 23
     name lthumb
     direction 0.707107 -6.34941e-011 0.707107   
     length 0.52198   
     axis -90 45 2.85299e-015   XYZ
    dof rx rz
    limits (-45.0 45.0)
           (-45.0 45.0)
  end
  begin
     id 24 
     name rclavicle
     direction -0.825079 0.56158 -0.0622297   
     length 3.39909  
     axis 0 0 0   XYZ 
    dof ry rz
    limits (-10.0 20.0)
           (-20.0 0.0)
  end
  begin
     id 25 
     name rhumerus
     direction -1 -4.48965e-011 1.61691e-027  
     length 4.86725   
     axis -180 30 90   XYZ
    dof rx ry rz
    limits (-90.0 60.0)
           (-90.0 90.0)
           (-90.0 90.0)
  end
  begin
     id 26 
     name rradius
     direction -1 -4.48964e-011 -2.25776e-027   
     length 3.17144   
     axis -180 30 90   XYZ
    dof rx
    limits (-10.0 170.0)
  end
  begin
     id 27 
     name rwrist
     direction -1 -4.48961e-011 -7.31504e-027   
     length 1.58572   
     axis 5.74121e-015 -90 -90   XYZ
    dof ry
    limits (-180.0 0.0)
  end
  begin
     id 28
     name rhand
     direction -1 -4.49013e-011 -1.46301e-026   
     length 0.419368   
     axis 9.33524e-015 -90 -90   XYZ
    dof rx rz
    limits (-90.0 90.0)
           (-45.0 45.0)
  end
  begin
     id 29
     name rfingers
     direction -1 -4.489e-011 -2.92602e-026   
     length 0.338105   
     axis 1.86705e-014 -90 -90   XYZ
    dof rx
    limits (0.0 90.0)
  end
  begin
     id 30
     name rthumb
     direction -0.707107 -6.35022e-011 0.707107   
     length 0.485453   
     axis -90 -45 -2.85299e-015   XYZ
    dof rx rz
    limits (-45.0 45.0)
           (-45.0 45.0)
  end
:hierarchy
  begin
    root lhipjoint rhipjoint lowerback
    lhipjoint lfemur
    lfemur ltibia
    ltibia lfoot
    lfoot ltoes
    rhipjoint rfemur
    rfemur rtibia
    rtibia rfoot
    rfoot rtoes
    lowerback upperback
    upperback thorax
    thorax lowerneck lclavicle rclavicle
    lowerneck upperneck
    upperneck head
    lclavicle lhumerus
    lhumerus lradius
    lradius lwrist
    lwrist lhand lthumb
    lhand lfingers
    rclavicle rhumerus
    rhumerus rradius
    rradius rwrist
    rwrist rhand rthumb
    rhand rfingers
  end

#!OML:ASF H:\Swim 2\Project 1\Capture day 1\Session 1\male.ASF
:FULLY-SPECIFIED
:DEGREES
342
root 1.4453 12.9366 6.81215 66.0717 -4.58381 -8.90155
lowerback 2.06341 4.61548 -8.78953
upperback -2.90518 6.04708 3.94012
thorax -5.58813 3.46839 8.64708
lowerneck -22.1586 -3.04437 -4.93109
upperneck 27.4659 -3.4968 3.18228
head 13.0471 -1.59306 1.46154
rclavicle -7.95139e-016 -9.93923e-015
rhumerus 21.2052 26.3824 -14.6156
rradius 68.0955
rwrist -30.4708
rhand -0.145759 -3.31044
rfingers 7.12502
rthumb 25.4508 -31.6312
lclavicle -7.95139e-016 -9.93923e-015
lhumerus 38.0685 -48.9198 -6.40376
lradius 75.9995
lwrist 60.5638
lhand -37.4031 -7.53764
lfingers 7.12502
lthumb -10.4636 22.182
rfemur -54.895 9.57149 17.6485
rtibia 66.7749
rfoot 47.6921 15.8002
rtoes 24.4662
lfemur -54.8074 11.3567 -27.2824
ltibia 87.7844
lfoot 8.53917 5.71786
ltoes 28.0471
343
root 1.44946 12.9414 6.84283 65.7442 -4.65638 -8.88907
lowerback 2.3984 4.63814 -8.98664
upperback -2.92066 6.04988 4.08079
thorax -5.83858 3.4943 8.88696
lowerneck -21.7507 -3.06739 -5.0861
upperneck 26.8745 -3.49484 3.23064
head 12.7275 -1.60545 1.50463
rclavicle -1.03368e-014 -8.74653e-015
rhumerus 19.2356 26.9068 -16.5663
rradius 69.9264
rwrist -30.3698
rhand 1.14702 -2.65955
rfingers 7.12502
rthumb 26.6886 -30.7978
lclavicle -1.03368e-014 -8.74653e-015
lhumerus 36.4757 -50.6392 -4.75987
lradius 78.1524
lwrist 61.5987
lhand -37.3135 -7.27553
lfingers 7.12502
lthumb -10.377 22.4484
rfemur -55.0364 9.233 17.6451
rtibia 67.6174
rfoot 47.7287 15.9229
rtoes 24.3946
lfemur -54.7274 11.5896 -27.3341
ltibia 88.4704
lfoot 8.3305 5.49414
ltoes 27.8328
344
root 1.45344 12.9466 6.87383 65.4357 -4.72444 -8.88381
lowerback 2.72031 4.66352 -9.17556
upperback -2.93255 6.05669 4.21758
thorax -6.0778 3.52183 9.11988
lowerneck -21.3907 -3.09578 -5.22916
upperneck 26.3043 -3.50469 3.27995
head 12.431 -1.62072 1.54374
rclavicle -5.56597e-015 3.65764e-014
rhumerus 17.244 27.3482 -18.6228
rradius 71.7909
rwrist -30.3247
rhand 2.34297 -2.13919
rfingers 7.12502
rthumb 27.8325 -30.0977
lclavicle -5.56597e-015 3.65764e-014
lhumerus 34.7491 -52.2666 -2.89611
lradius 80.3142
lwrist 62.748
lhand -37.2506 -7.12006
lfingers 7.12502
lthumb -10.3164 22.6069
rfemur -55.1874 8.916 17.6387
rtibia 68.4553
rfoot 47.7499 16.0302
rtoes 24.3325
lfemur -54.654 11.8355 -27.374
ltibia 89.1578
lfoot 8.08829 5.26028
ltoes 27.5666
345
root 1.45716 12.9521 6.90556 65.1541 -4.77415 -8.89029
lowerback 3.0136 4.69159 -9.33484
upperback -2.94233 6.06996 4.3486
thorax -6.29617 3.5507 9.33198
lowerneck -21.0671 -3.12887 -5.36007
upperneck 25.751 -3.52685 3.33506
head 12.1528 -1.63872 1.58074
rclavicle 5.24792e-014 1.27222e-014
rhumerus 15.2083 27.6969 -20.7936
rradius 73.6936
rwrist -30.4312
rhand 3.41628 -1.73046
rfingers 7.12502
rthumb 28.8583 -29.5185
lclavicle 5.24792e-014 1.27222e-014
lhumerus 32.8914 -53.7901 -0.807897
lradius 82.4672
lwrist 63.9403
lhand -37.2072 -7.03229
lfingers 7.12502
lthumb -10.2745 22.6968
rfemur -55.3478 8.62013 17.6445
rtibia 69.2841
rfoot 47.7504 16.1233
rtoes 24.2822
lfemur -54.5954 12.0944 -27.3881
ltibia 89.846
lfoot 7.81058 5.01331
ltoes 27.1784
346
root 1.46058 12.9578 6.93806 64.8999 -4.7992 -8.90247
lowerback 3.27446 4.7192 -9.45638
upperback -2.94943 6.08638 4.47149
thorax -6.48868 3.57833 9.51631
lowerneck -20.7682 -3.16361 -5.47865
upperneck 25.2032 -3.55825 3.40078
head 11.8855 -1.65776 1.61799
rclavicle -6.2816e-014 -3.18055e-014
rhumerus 13.1122 27.9373 -23.0911
rradius 75.6318
rwrist -30.6869
rhand 4.31806 -1.36882
rfingers 7.12502
rthumb 29.7193 -29.0066
lclavicle -6.2816e-014 -3.18055e-014
lhumerus 30.9184 -55.2123 1.47479
lradius 84.5964
lwrist 65.0746
lhand -37.2009 -6.9884
lfingers 7.12502
lthumb -10.2684 22.7409
rfemur -55.5144 8.33655 17.667
rtibia 70.1022
rfoot 47.7191 16.2084
rtoes 24.2396
lfemur -54.5541 12.3584 -27.3735
ltibia 90.5346
lfoot 7.49622 4.75238
ltoes 26.7156
347
root 1.46367 12.9637 6.97127 64.6725 -4.79643 -8.91173
lowerback 3.50561 4.7382 -9.52877
upperback -2.95305 6.09512 4.57945
thorax -6.65085 3.59794 9.65972
lowerneck -20.4893 -3.19191 -5.58142
upperneck 24.6511 -3.58829 3.47711
head 11.6235 -1.67303 1.65653
rclavicle -2.94201e-014 -8.74653e-015
rhumerus 10.9873 28.0938 -25.4803
rradius 77.5962
rwrist -31.0702
rhand 4.97546 -1.0176
rfingers 7.12502
rthumb 30.3466 -28.5416
lclavicle -2.94201e-014 -8.74653e-015
lhumerus 28.8253 -56.5229 3.92493
lradius 86.695
lwrist 66.1086
lhand -37.1914 -6.90796
lfingers 7.12502
lthumb -10.2593 22.8218
rfemur -55.6865 8.05241 17.7077
rtibia 70.9133
rfoot 47.6434 16.31
rtoes 24.2352
lfemur -54.5271 12.6187 -27.3329
ltibia 91.2213
lfoot 7.14305 4.46993
ltoes 26.235
348
root 1.46639 12.9699 7.00524 64.4676 -4.76628 -8.91233
lowerback 3.71113 4.745 -9.55428
upperback -2.95581 6.09108 4.67171
thorax -6.78652 3.60718 9.76273
lowerneck -20.2053 -3.21147 -5.67459
upperneck 24.0785 -3.61414 3.57079
head 11.3556 -1.68337 1.70036
rclavicle -3.57812e-014 -3.37934e-014
rhumerus 8.84062 28.1784 -27.9493
rradius 79.5856
rwrist -31.5297
rhand 5.36382 -0.643596
rfingers 7.12502
rthumb 30.7169 -28.0986
lclavicle -3.57812e-014 -3.37934e-014
lhumerus 26.6336 -57.7381 6.49877
lradius 88.756
lwrist 67.0027
lhand -37.1889 -6.76876
lfingers 7.12502
lthumb -10.2569 22.9612
rfemur -55.8598 7.75871 17.7662
rtibia 71.7217
rfoot 47.5115 16.4211
rtoes 24.2776
lfemur -54.5127 12.8717 -27.2698
ltibia 91.9056
lfoot 6.73452 4.17259
ltoes 25.6729
349
root 1.46858 12.9765 7.03908 64.2775 -4.72242 -8.89618
lowerback 3.9006 4.7374 -9.55359
upperback -2.95449 6.06937 4.74803
thorax -6.8988 3.60436 9.83704
lowerneck -19.9088 -3.22091 -5.77276
upperneck 23.4775 -3.63141 3.69052
head 11.078 -1.68724 1.7556
rclavicle -1.59028e-015 -1.39149e-014
rhumerus 6.71063 28.2294 -30.447
rradius 81.5895
rwrist -32.0341
rhand 5.46052 -0.224563
rfingers 7.12502
rthumb 30.8091 -27.6622
lclavicle -1.59028e-015 -1.39149e-014
lhumerus 24.3438 -58.8603 9.18088
lradius 90.7721
lwrist 67.7672
lhand -37.1755 -6.54279
lfingers 7.12502
lthumb -10.244 23.1878
rfemur -56.0378 7.45128 17.8279
rtibia 72.5387
rfoot 47.3128 16.5398
rtoes 24.3452
lfemur -54.5031 13.1158 -27.2001
ltibia 92.5867
lfoot 6.28058 3.85152
ltoes 25.1596
350
root 1.47022 12.9833 7.07268 64.0915 -4.67354 -8.86478
lowerback 4.08292 4.71802 -9.54254
upperback -2.94607 6.03216 4.81375
thorax -6.99264 3.59157 9.89693
lowerneck -19.6191 -3.2193 -5.87347
upperneck 22.8681 -3.63376 3.81823
head 10.8012 -1.68368 1.81595
rclavicle 3.33958e-014 1.59028e-014
rhumerus 4.61519 28.2817 -32.9384
rradius 83.6111
rwrist -32.5837
rhand 5.32962 0.213108
rfingers 7.12502
rthumb 30.6843 -27.248
lclavicle 3.33958e-014 1.59028e-014
lhumerus 21.9558 -59.8857 11.9837
lradius 92.7324
lwrist 68.4695
lhand -37.0962 -6.22245
lfingers 7.12502
lthumb -10.1675 23.5119
rfemur -56.2105 7.13074 17.8885
rtibia 73.3697
rfoot 47.0586 16.6577
rtoes 24.4301
lfemur -54.4909 13.3597 -27.1283
ltibia 93.2662
lfoot 5.78359 3.50304
ltoes 24.641
